<svg width="60" height="35" viewBox="0 0 60 35" fill="none" xmlns="http://www.w3.org/2000/svg">
<path d="M2.24562 2.29756L2.24565 2.29752C3.52707 0.924277 5.56652 0.924277 6.84794 2.29752L6.84796 2.29754L25.863 22.6742C28.1325 25.1063 31.8511 25.1072 34.1209 22.6741L53.1519 2.27994L53.1519 2.27991C54.4332 0.906697 56.4728 0.906697 57.7541 2.27991L57.7542 2.28004C59.0819 3.70258 59.0819 6.04251 57.7542 7.46493L57.7541 7.46506L35.519 31.2933C32.4629 34.5679 27.5466 34.5691 24.4889 31.2958L2.24561 7.48255C2.24548 7.48242 2.24535 7.48228 2.24522 7.48214C0.918136 6.05966 0.91825 3.71993 2.24562 2.29756Z" stroke="#3F6FFF" stroke-width="2.5"/>
</svg>
