<svg width="132" height="130" viewBox="0 0 132 130" fill="none" xmlns="http://www.w3.org/2000/svg">
<path d="M0 117.828C0 100.335 8.91169 84.9237 22.4427 75.8863C26.9941 97.2314 26.8301 117.122 26.7428 127.694L26.7428 127.695C26.736 128.522 26.7297 129.292 26.7261 130.001H0V117.828Z" fill="#E3AB99"/>
<path d="M31.0633 127.736C31.155 116.949 31.3337 95.9317 26.3495 73.5253C33.4972 69.6369 41.6906 67.4277 50.4 67.4277H81.6C90.3095 67.4277 98.5031 69.6369 105.651 73.5255C100.667 95.9318 100.845 116.949 100.937 127.736C100.944 128.551 100.95 129.307 100.954 130.001H31.0462C31.0499 129.307 31.0563 128.552 31.0633 127.738L31.0633 127.736Z" fill="#1C1C1C"/>
<path d="M105.274 130.001H132V117.828C132 100.335 123.088 84.924 109.558 75.8865C105.006 97.2315 105.17 117.122 105.258 127.694L105.258 127.696C105.264 128.522 105.271 129.292 105.274 130.001Z" fill="#E3AB99"/>
<mask id="mask0_444_166" style="mask-type:alpha" maskUnits="userSpaceOnUse" x="35" y="0" width="62" height="62">
<circle cx="65.9999" cy="30.8807" r="30.8807" fill="#E3AB99"/>
</mask>
<g mask="url(#mask0_444_166)">
<circle cx="65.9999" cy="30.8807" r="30.8807" fill="#E3AB99"/>
<path d="M66 0C49.2 0 40.5 11.3333 38 17.5H94C91.5 11.3333 82.8 0 66 0Z" fill="#505050"/>
<path d="M46.0003 5.49971C46 9.49971 46.0001 12.9272 46 17.4999L47.5 19L50 18L52.5 19L55.5 18L58 19L60.5 18L63 19L66 18L68 19L70 18L72.5 19L75 18L77.5 19L80 18L83 19L85 17.4999L85 4.99959C85 3.61342 75.6117 -0.480578 66 -8.25934e-05C55.5003 -0.000284735 46.0005 3.7527 46.0003 5.49971Z" fill="#343434"/>
</g>
</svg>
