<svg width="132" height="130" viewBox="0 0 132 130" fill="none" xmlns="http://www.w3.org/2000/svg">
<path d="M0 117.828C0 100.335 8.91169 84.9237 22.4427 75.8863C26.9941 97.2314 26.8301 117.122 26.7428 127.694L26.7428 127.695C26.736 128.522 26.7297 129.292 26.7261 130.001H0V117.828Z" fill="#E3AB99"/>
<path d="M31.0633 127.736C31.155 116.949 31.3337 95.9317 26.3495 73.5253C33.4972 69.6369 41.6906 67.4277 50.4 67.4277H81.6C90.3095 67.4277 98.5031 69.6369 105.651 73.5255C100.667 95.9318 100.845 116.949 100.937 127.736C100.944 128.551 100.95 129.307 100.954 130.001H31.0462C31.0499 129.307 31.0563 128.552 31.0633 127.738L31.0633 127.736Z" fill="#1C1C1C"/>
<path d="M105.274 130.001H132V117.828C132 100.335 123.088 84.924 109.558 75.8865C105.006 97.2315 105.17 117.122 105.258 127.694L105.258 127.696C105.264 128.522 105.271 129.292 105.274 130.001Z" fill="#E3AB99"/>
<mask id="mask0_442_151" style="mask-type:alpha" maskUnits="userSpaceOnUse" x="35" y="0" width="62" height="62">
<circle cx="65.9999" cy="30.8807" r="30.8807" fill="#E3AB99"/>
</mask>
<g mask="url(#mask0_442_151)">
<circle cx="65.9999" cy="30.8807" r="30.8807" fill="#E3AB99"/>
<path d="M94.1987 18.0005C94.1987 18.0005 91.5 11.5 87 7.99996C85.7073 7.09581 50.5 7.4994 45 8C41.5 9.9994 38.5 16.5004 37.9258 18.0007L94.1987 18.0005Z" fill="white"/>
</g>
</svg>
