<svg width="132" height="130" viewBox="0 0 132 130" fill="none" xmlns="http://www.w3.org/2000/svg">
<path d="M0 117.828C0 100.335 8.91169 84.9237 22.4427 75.8863C26.9941 97.2314 26.8301 117.122 26.7428 127.694L26.7428 127.695C26.736 128.522 26.7297 129.292 26.7261 130.001H0V117.828Z" fill="#E3AB99"/>
<path d="M31.0633 127.736C31.155 116.949 31.3337 95.9317 26.3495 73.5253C33.4972 69.6369 41.6906 67.4277 50.4 67.4277H81.6C90.3095 67.4277 98.5031 69.6369 105.651 73.5255C100.667 95.9318 100.845 116.949 100.937 127.736C100.944 128.551 100.95 129.307 100.954 130.001H31.0462C31.0499 129.307 31.0563 128.552 31.0633 127.738L31.0633 127.736Z" fill="#1C1C1C"/>
<path d="M105.274 130.001H132V117.828C132 100.335 123.088 84.924 109.558 75.8865C105.006 97.2315 105.17 117.122 105.258 127.694L105.258 127.696C105.264 128.522 105.271 129.292 105.274 130.001Z" fill="#E3AB99"/>
<circle cx="65.9999" cy="30.8807" r="30.8807" fill="#E3AB99"/>
<path d="M38 17.5C40.5 11.3333 49.2 0 66 0C82.8 0 91.5 11.3333 94 17.5L95.5 21.5L96.5 26L94.5 24L92.5 27.5L90 20.5L88 25.5L86.5 15.5L83 27.5L79.6087 21.5652L78.5 26L75.5 16L73.5 20.5L71 28L69.5 17.5L66.5 22.5L64.5 16L63 24L60 18.5L58 26.5L53 13.5L50 27L47 19.5L45 14L39.5 25.5L40 17.5L36 23.5L38 17.5Z" fill="#3F6FFF"/>
</svg>
