<svg width="132" height="131" viewBox="0 0 132 131" fill="none" xmlns="http://www.w3.org/2000/svg">
<path d="M0 118.828C0 101.335 8.91169 85.9237 22.4427 76.8863C26.9941 98.2314 26.8301 118.122 26.7428 128.694L26.7428 128.695C26.736 129.522 26.7297 130.292 26.7261 131.001H0V118.828Z" fill="#E3AB99"/>
<path d="M31.0633 128.736C31.155 117.949 31.3337 96.9317 26.3495 74.5253C33.4972 70.6369 41.6906 68.4277 50.4 68.4277H81.6C90.3095 68.4277 98.5031 70.6369 105.651 74.5255C100.667 96.9318 100.845 117.949 100.937 128.736C100.944 129.551 100.95 130.307 100.954 131.001H31.0462C31.0499 130.307 31.0563 129.552 31.0633 128.738L31.0633 128.736Z" fill="#1C1C1C"/>
<path d="M105.274 131.001H132V118.828C132 101.335 123.088 85.924 109.558 76.8865C105.006 98.2315 105.17 118.122 105.258 128.694L105.258 128.696C105.264 129.522 105.271 130.292 105.274 131.001Z" fill="#E3AB99"/>
<circle cx="65.9999" cy="31.8807" r="30.8807" fill="#E3AB99"/>
<path d="M66 1C49.2 1 40.5 12.3333 38 18.5L39.5 22.5L43 19L46.5 22.5L50 19L53.5 22.5L57 19L60.5 22.5L64.5 18.5L68.5 22.5L72.5 18.5L76.5 22.5L80.5 18.5L84.5 22.5L88.5 18.5L91 22.5L94 18.5C91.5 12.3333 82.8 1 66 1Z" fill="black" stroke="black"/>
</svg>
